<?xml version="1.0" encoding="utf-8"?>
<svg width="101px" height="96px" viewBox="0 0 101 96" version="1.1" xmlns:xlink="http://www.w3.org/1999/xlink" xmlns="http://www.w3.org/2000/svg">
  <desc>Created with Lunacy</desc>
  <defs>
    <filter filterUnits="userSpaceOnUse" color-interpolation-filters="sRGB" id="filter_1">
      <feFlood flood-opacity="0" result="BackgroundImageFix" />
      <feColorMatrix in="SourceAlpha" type="matrix" values="0 0 0 0 0 0 0 0 0 0 0 0 0 0 0 0 0 0 127 0" />
      <feOffset dx="7" dy="2" />
      <feGaussianBlur stdDeviation="2" />
      <feColorMatrix type="matrix" values="0 0 0 0 0.3921569 0 0 0 0 0.3921569 0 0 0 0 0.3921569 0 0 0 0.4980392 0" />
      <feBlend mode="normal" in2="BackgroundImageFix" result="effect0_dropShadow" />
      <feBlend mode="normal" in="SourceGraphic" in2="effect0_dropShadow" result="shape" />
    </filter>
  </defs>
  <g id="Group">
    <g filter="url(#filter_1)">
      <path d="M50.3682 0L100.736 95.7937L0 95.7937L50.3682 0Z" id="Triangle" fill="#E8F0F9" stroke="none" />
    </g>
    <g id="Group" transform="translate(43.66856 29.73376)">
      <path d="M0 5.5C0 2.46243 2.56299 0 5.72459 0C8.8862 0 11.4492 2.46243 11.4492 5.5C11.4492 8.53757 8.8862 11 5.72459 11C2.56299 11 1.45767 9.16668 1.45767 9.16668C1.45767 9.16668 0 8.53757 0 5.5Z" transform="translate(0 47)" id="Ellipse" fill="#F74242" stroke="none" />
      <path d="M5.72354 0L5.72568 0Q5.86198 0 5.9981 0.00702802Q6.13423 0.014056 6.26981 0.0280934Q6.40539 0.0421307 6.54006 0.06314Q6.67474 0.0841493 6.80815 0.112075Q6.94156 0.14 7.07336 0.174767Q7.20516 0.209534 7.33498 0.251051Q7.46481 0.292567 7.59233 0.340723Q7.71984 0.388878 7.8447 0.443544Q7.96956 0.49821 8.09144 0.559242Q8.21332 0.620273 8.33189 0.687508Q8.45045 0.754742 8.5654 0.828Q8.68034 0.901259 8.79136 0.980346Q8.90237 1.05943 9.00916 1.14414Q9.11595 1.22885 9.21822 1.31895Q9.3205 1.40905 9.418 1.5043Q9.5155 1.59955 9.60795 1.69971Q9.70041 1.79986 9.78758 1.90465Q9.87475 2.00944 9.95639 2.11858Q10.038 2.22772 10.114 2.34093Q10.1899 2.45414 10.2598 2.57111Q10.3298 2.68808 10.3937 2.80851Q10.4575 2.92893 10.5151 3.05249Q10.5726 3.17604 10.6237 3.3024Q10.6749 3.42876 10.7194 3.55759Q10.7639 3.68641 10.8017 3.81736Q10.8396 3.94832 10.8706 4.08104Q10.9016 4.21377 10.9257 4.34792Q10.9499 4.48207 10.9671 4.61729Q10.9843 4.7525 10.9945 4.88842Q11.0046 5.02435 11.0078 5.16061Q11.011 5.29688 11.0071 5.43313Q11.0033 5.56938 10.9924 5.70525L8.5758 35.8884Q8.56321 36.0455 8.53606 36.2008Q8.50891 36.3561 8.46743 36.5082Q8.42594 36.6603 8.37049 36.8079Q8.31503 36.9555 8.24608 37.0973Q8.17713 37.2391 8.09529 37.3738Q8.01345 37.5086 7.91942 37.6352Q7.8254 37.7617 7.72 37.879Q7.61461 37.9962 7.49876 38.1032Q7.38292 38.2101 7.25762 38.3058Q7.13233 38.4015 6.99867 38.4851Q6.86502 38.5688 6.72416 38.6396Q6.58331 38.7104 6.43647 38.7678Q6.28964 38.8252 6.1381 38.8687Q5.98656 38.9122 5.83163 38.9414Q5.6767 38.9707 5.51972 38.9853Q5.36274 39 5.20508 39L5.20321 39Q5.04695 39 4.8914 38.9852Q4.73585 38.9704 4.58239 38.9409Q4.42894 38.9115 4.27896 38.8676Q4.12899 38.8238 3.98385 38.7659Q3.8387 38.708 3.69969 38.6367Q3.56067 38.5653 3.42904 38.4811Q3.29741 38.3969 3.17434 38.3006Q3.05127 38.2044 2.93788 38.0969Q2.82448 37.9893 2.72177 37.8716Q2.61907 37.7538 2.52798 37.6269Q2.43688 37.4999 2.35822 37.3649Q2.27956 37.2299 2.21404 37.088Q2.14852 36.9462 2.09673 36.7988Q2.04494 36.6513 2.00734 36.4997Q1.96974 36.348 1.94667 36.1935Q1.9236 36.0389 1.91528 35.8829L0.305064 5.7154Q0.297723 5.57787 0.297369 5.44014Q0.297015 5.30241 0.303648 5.16484Q0.310282 5.02727 0.323886 4.89022Q0.33749 4.75316 0.35803 4.61697Q0.37857 4.48078 0.405992 4.34581Q0.433415 4.21084 0.467649 4.07743Q0.501884 3.94402 0.542842 3.81253Q0.583801 3.68103 0.631378 3.55178Q0.678955 3.42253 0.733028 3.29586Q0.7871 3.16918 0.84753 3.04542Q0.907959 2.92166 0.97459 2.80112Q1.04122 2.68058 1.11388 2.56357Q1.18654 2.44657 1.26504 2.3334Q1.34354 2.22023 1.42769 2.1112Q1.51183 2.00216 1.60139 1.89753Q1.69096 1.7929 1.78572 1.69295Q1.88048 1.593 1.98018 1.49798Q2.07989 1.40297 2.18429 1.31313Q2.28869 1.2233 2.39751 1.13887Q2.50633 1.05445 2.6193 0.975659Q2.73226 0.896866 2.84908 0.823905Q2.9659 0.750945 3.08626 0.684005Q3.20663 0.617064 3.33024 0.556317Q3.45385 0.495569 3.58038 0.441171Q3.70691 0.386773 3.83604 0.338864Q3.96517 0.290955 4.09656 0.249658Q4.22795 0.208362 4.36127 0.173784Q4.49459 0.139207 4.62949 0.111437Q4.76439 0.0836676 4.90053 0.0627777Q5.03666 0.0418877 5.17368 0.0279312Q5.3107 0.0139746 5.44826 0.00698729Q5.58581 0 5.72354 0L5.72354 0Z" id="Rectangle" fill="#F74242" stroke="none" />
    </g>
  </g>
</svg>